Patient4_TMGait_0pt7_01_left_47_GRF.mot
version=1
nRows=32
nColumns=19
inDegrees=no
endheader
time	F1x	F1y	F1z	M1x	M1y	M1z	F2x	F2y	F2z	M2x	M2y	M2z	EC1x	EC1y	EC1z	EC2x	EC2y	EC2z
54.55	6.6083	-1.1182	6.5359	-1.1254	-6.0428	-1.5626	-43.9579	743.1498	-57.3417	270.6775	89.0111	850.2795	-0.0592	0.0182	-0.0073	-0.0462	0.0165	0.9585
54.5619	4.4077	-0.13076	4.5039	-0.9959	-4.2411	-0.47839	-40.068	742.3607	-60.0366	271.665	88.163	846.5151	-0.0592	0.0182	-0.0073	-0.0462	0.0165	0.9585
54.5737	2.4929	0.74308	2.7893	-0.90045	-2.7261	0.54194	-36.4478	742.4824	-61.8354	272.726	86.6973	842.8707	-0.0592	0.0182	-0.0073	-0.0462	0.0165	0.9585
54.5856	0.979	1.4606	1.4709	-0.84598	-1.5668	1.4474	-33.2904	743.608	-62.7237	273.8359	84.7529	839.5517	-0.0592	0.0182	-0.0073	-0.0462	0.0165	0.9585
54.5974	-0.080668	2.0004	0.56077	-0.82407	-0.76118	2.1677	-30.6198	745.6123	-62.8613	274.946	82.5058	836.561	-0.0592	0.0182	-0.0073	-0.0462	0.0165	0.9585
54.6093	-0.77545	2.3836	-0.012894	-0.82301	-0.25341	2.7276	-28.2984	748.1359	-62.4691	275.9586	80.0952	833.6228	-0.0592	0.0182	-0.0073	-0.0462	0.0165	0.9585
54.6211	-1.1586	2.5971	-0.30669	-0.81965	0.0088497	3.0751	-26.1177	750.7124	-61.7539	276.7468	77.6023	830.3444	-0.0592	0.0182	-0.0073	-0.0462	0.0165	0.9585
54.633	-1.3583	2.6554	-0.4103	-0.79747	0.088801	3.2349	-23.8221	752.7365	-60.8787	277.1435	75.0454	826.159	-0.0592	0.0182	-0.0073	-0.0462	0.0165	0.9585
54.6449	-1.4151	2.5055	-0.37169	-0.72426	0.027885	3.113	-21.1959	753.6227	-59.9522	276.9849	72.4097	820.5203	-0.0592	0.0182	-0.0073	-0.0462	0.0165	0.9585
54.6567	-1.4289	2.096	-0.25083	-0.56789	-0.13443	2.6648	-18.0318	752.902	-59.0393	276.1442	69.6566	812.9882	-0.0592	0.0182	-0.0073	-0.0462	0.0165	0.9585
54.6686	-1.4019	1.3363	-0.071908	-0.28968	-0.364	1.7482	-14.2343	750.2978	-58.1962	274.5578	66.7852	803.3399	-0.0592	0.0182	-0.0073	-0.0462	0.0165	0.9585
54.6804	-1.3818	0.16454	0.13891	0.14073	-0.63837	0.29991	-9.7287	745.8498	-57.4469	272.27	63.788	791.6698	-0.0592	0.0182	-0.0073	-0.0462	0.0165	0.9585
54.6923	-1.3287	-1.4771	0.35707	0.74774	-0.91468	-1.7652	-4.5676	739.9642	-56.8182	269.4551	60.7033	778.4745	-0.0592	0.0182	-0.0073	-0.0462	0.0165	0.9585
54.7041	-1.2386	-3.545	0.55492	1.5167	-1.1496	-4.3586	1.1496	733.4107	-56.322	266.4163	57.5769	764.6126	-0.0592	0.0182	-0.0073	-0.0462	0.0165	0.9585
54.716	-1.0285	-5.8949	0.67951	2.3862	-1.244	-7.3124	7.2331	727.2525	-55.9958	263.5537	54.5101	751.2459	-0.0592	0.0182	-0.0073	-0.0462	0.0165	0.9585
54.7279	-0.65009	-8.1421	0.67488	3.2104	-1.0995	-10.1331	13.4239	722.6202	-55.8749	261.2867	51.6225	739.5888	-0.0592	0.0182	-0.0073	-0.0462	0.0165	0.9585
54.7397	0.011182	-9.6387	0.44538	3.7391	-0.55674	-12.0361	19.4107	720.5397	-56.0124	259.983	49.0715	730.7424	-0.0592	0.0182	-0.0073	-0.0462	0.0165	0.9585
54.7516	1.0236	-9.3304	-0.10995	3.5767	0.53972	-11.7154	24.8756	721.6814	-56.4373	259.8772	46.9916	725.4353	-0.0592	0.0182	-0.0073	-0.0462	0.0165	0.9585
54.7634	2.465	-5.7683	-1.1101	2.1753	2.3642	-7.4037	29.5385	726.1799	-57.1542	261.0077	45.4809	723.8488	-0.0592	0.0182	-0.0073	-0.0462	0.0165	0.9585
54.7753	4.3226	2.8888	-2.6647	-1.1578	5.0462	3.1859	33.2291	733.5207	-58.1335	263.1798	44.5603	725.4874	-0.0592	0.0182	-0.0073	-0.0462	0.0165	0.9585
54.7871	6.4896	18.7312	-4.8382	-7.2077	8.6171	22.624	35.9359	742.5323	-59.2817	265.9652	44.1413	729.1828	-0.0592	0.0182	-0.0073	-0.0462	0.0165	0.9585
54.799	8.6627	43.7685	-7.601	-16.7249	12.9043	53.407	37.7736	751.4683	-60.4253	268.7356	44.0183	733.2017	-0.0592	0.0182	-0.0073	-0.0462	0.0165	0.9585
54.8109	10.2928	79.3372	-10.7178	-30.1985	17.3888	97.203	38.9645	758.1352	-61.3312	270.7095	43.8983	735.3675	-0.0592	0.0182	-0.0073	-0.0462	0.0165	0.9585
54.8227	10.4922	125.1781	-13.6752	-47.5013	21.0711	153.7298	39.6984	760.0998	-61.6991	271.0269	43.4379	733.3172	-0.0592	0.0182	-0.0073	-0.0462	0.0165	0.9585
54.8346	8.0892	178.2617	-15.5538	-67.4495	22.3653	219.2939	40.1193	754.891	-61.244	268.8226	42.3308	724.6863	-0.0592	0.0182	-0.0073	-0.0462	0.0165	0.9585
54.8464	2.5309	232.0988	-15.1514	-87.5392	19.5706	285.9092	40.2513	740.431	-59.7123	263.3736	40.3484	707.5429	-0.0592	0.0182	-0.0073	-0.0462	0.0165	0.9585
54.8583	-4.6292	278.1033	-11.1325	-104.5254	11.7867	342.8876	40.0918	715.4567	-56.9942	254.253	37.4196	680.7227	-0.0592	0.0182	-0.0073	-0.0462	0.0165	0.9585
54.8701	-11.205	311.6279	-4.2521	-116.6961	0.82439	384.2628	39.6281	680.0278	-53.1743	241.4876	33.6583	644.3386	-0.0592	0.0182	-0.0073	-0.0462	0.0165	0.9585
54.882	-16.365	333.9382	3.8245	-124.5732	-11.033	411.4117	38.887	635.5284	-48.5153	225.5626	29.3165	599.7403	-0.0592	0.0182	-0.0073	-0.0462	0.0165	0.9585
54.8939	-19.9614	349.1925	12.088	-129.7575	-22.4097	429.5036	37.9633	584.2209	-43.4217	207.2717	24.7376	549.099	-0.0592	0.0182	-0.0073	-0.0462	0.0165	0.9585
54.9057	-22.0723	361.6717	19.1058	-133.9216	-31.7082	443.8743	36.925	528.8095	-38.1556	187.572	20.1361	494.9945	-0.0592	0.0182	-0.0073	-0.0462	0.0165	0.9585
54.9176	-23.138	374.4038	24.5377	-138.2266	-38.5863	458.4277	35.7948	472.0064	-32.8659	167.4311	15.6452	439.9967	-0.0592	0.0182	-0.0073	-0.0462	0.0165	0.9585
